# xmcd
#
# Track frame offsets:
#	150
#	21318
#	38047
#	45793
#	64688
#	78308
#	81839
#	93887
#	114996
#	131118
#	145429
#	157051
#	174259
#	200486
#
# Disc length: 2943 seconds
#
# Revision: 3
# Processed by: cddbd v1.5.2PL0 Copyright (c) Steve Scherf et al.
# Submitted via: dBpowerAMP V4.0
#
DISCID=b10b7d0e
DTITLE=The Desert Sessions - Volume 9 and 10
DYEAR=2003
DGENRE=Stoner Metal
TTITLE0=Dead In Love
TTITLE1=I Wanna Make It Wit Chu
TTITLE2=Covered In Punks Blood
TTITLE3=There Will Never Be A Better Time
TTITLE4=Crawl Home
TTITLE5=I'm Here For Your Daughter
TTITLE6=Powdered Wig Machine
TTITLE7=In My Head...Or Something
TTITLE8=Holey Dime
TTITLE9=A Girl Like Me
TTITLE10=Creosote
TTITLE11=Subcutaneous Phat
TTITLE12=Bring It Back Gentle
TTITLE13=Sheperds Pie
EXTD=
EXTT0=
EXTT1=
EXTT2=
EXTT3=
EXTT4=
EXTT5=
EXTT6=
EXTT7=
EXTT8=
EXTT9=
EXTT10=
EXTT11=
EXTT12=
EXTT13=
PLAYORDER=
